HIERARCHY
ROOT SpineBase
{
  OFFSET 0.000000 0.000000 0.000000
  CHANNELS 6 Xposition Yposition Zposition Zrotation Xrotation Yrotation
  JOINT SpineMid
  {
    OFFSET -0.000000 32.955681 0.000000
    CHANNELS 3 Zrotation Xrotation Yrotation
    JOINT SpineShoulder
    {
      OFFSET 0.184630 24.240501 -0.474927
      CHANNELS 3 Zrotation Xrotation Yrotation
      JOINT Neck
      {
        OFFSET 0.059210 7.914272 -0.520875
        CHANNELS 3 Zrotation Xrotation Yrotation
        JOINT Head
        {
          OFFSET -2.497458 12.547337 4.225868
          CHANNELS 3 Zrotation Xrotation Yrotation
          End Site
          {
            OFFSET 0 0 0
          }
        }
      }
      JOINT ShoulderLeft
      {
        OFFSET -6.850800 -7.181360 -12.673571
        CHANNELS 3 Zrotation Xrotation Yrotation
        JOINT ElbowLeft
        {
          OFFSET 15.104355 -15.188210 19.340484
          CHANNELS 3 Zrotation Xrotation Yrotation
          JOINT WristLeft
          {
            OFFSET 14.190545 -22.861052 11.980601
            CHANNELS 3 Zrotation Xrotation Yrotation
            JOINT HandLeft
            {
              OFFSET 4.724076 -7.072398 4.781147
              CHANNELS 3 Zrotation Xrotation Yrotation
              JOINT HandTipLeft
              {
                OFFSET 0.050983 -2.316758 0.084093
                CHANNELS 3 Zrotation Xrotation Yrotation
                End Site
                {
                  OFFSET 0 0 0
                }
              }
              JOINT ThumbLeft
              {
                OFFSET -0.086644 -0.278834 -4.321166
                CHANNELS 3 Zrotation Xrotation Yrotation
                End Site
                {
                  OFFSET 0 0 0
                }
              }
            }
          }
        }
      }
      JOINT ShoulderRight
      {
        OFFSET 15.625571 -7.095201 6.464459
        CHANNELS 3 Zrotation Xrotation Yrotation
        JOINT ElbowRight
        {
          OFFSET -21.310691 -17.044489 -16.949109
          CHANNELS 3 Zrotation Xrotation Yrotation
          JOINT WristRight
          {
            OFFSET -14.064129 -27.923620 -3.402433
            CHANNELS 3 Zrotation Xrotation Yrotation
            JOINT HandRight
            {
              OFFSET -2.821654 -8.691993 1.273893
              CHANNELS 3 Zrotation Xrotation Yrotation
              JOINT HandTipRight
              {
                OFFSET -3.928740 -7.365163 -1.053235
                CHANNELS 3 Zrotation Xrotation Yrotation
                End Site
                {
                  OFFSET 0 0 0
                }
              }
              JOINT ThumbRight
              {
                OFFSET 7.248356 -0.449221 5.045122
                CHANNELS 3 Zrotation Xrotation Yrotation
                End Site
                {
                  OFFSET 0 0 0
                }
              }
            }
          }
        }
      }
    }
  }
  JOINT HipLeft
  {
    OFFSET -5.333356 1.122407 1.368867
    CHANNELS 3 Zrotation Xrotation Yrotation
    JOINT KneeLeft
    {
      OFFSET 3.407270 -40.007479 -13.389358
      CHANNELS 3 Zrotation Xrotation Yrotation
      JOINT AnkleLeft
      {
        OFFSET 15.926093 -38.417662 13.292442
        CHANNELS 3 Zrotation Xrotation Yrotation
        JOINT FootLeft
        {
          OFFSET 3.285849 -5.178602 -7.141825
          CHANNELS 3 Zrotation Xrotation Yrotation
          End Site
          {
            OFFSET 0 0 0
          }
        }
      }
    }
  }
  JOINT HipRight
  {
    OFFSET 4.819521 0.733105 -8.426868
    CHANNELS 3 Zrotation Xrotation Yrotation
    JOINT KneeRight
    {
      OFFSET 3.695529 -38.041674 4.861353
      CHANNELS 3 Zrotation Xrotation Yrotation
      JOINT AnkleRight
      {
        OFFSET -4.914761 -37.220025 -12.503696
        CHANNELS 3 Zrotation Xrotation Yrotation
        JOINT FootRight
        {
          OFFSET -2.394935 -7.980755 -0.318426
          CHANNELS 3 Zrotation Xrotation Yrotation
          End Site
          {
            OFFSET 0 0 0
          }
        }
      }
    }
  }
}
MOTION
Frames: 6
Frame Time: 0.033333
18.347074 84.828043 280.808179 0.000000 0.000000 43.974340 -0.000000 0.000000 -43.974340 -0.000000 0.000000 0.000000 -0.000000 0.000000 0.000000 0.000000 0.000000 0.000000 -0.000000 0.000000 0.000000 -0.000000 0.000000 0.000000 -0.000000 0.000000 0.000000 -0.000000 0.000000 0.000000 0.000000 0.000000 0.000000 0.000000 0.000000 0.000000 -0.000000 0.000000 0.000000 -0.000000 0.000000 0.000000 -0.000000 0.000000 0.000000 -0.000000 0.000000 0.000000 0.000000 0.000000 0.000000 0.000000 0.000000 0.000000 -0.000000 0.000000 -43.974340 -0.000000 0.000000 0.000000 -0.000000 0.000000 0.000000 0.000000 0.000000 0.000000 -0.000000 0.000000 -43.974340 -0.000000 0.000000 0.000000 -0.000000 0.000000 0.000000 0.000000 0.000000 0.000000
19.162822 84.202422 280.997451 0.878863 0.046392 30.219087 -0.782792 0.402241 -30.216695 -0.000000 0.000000 0.000000 -0.000000 0.000000 0.000000 0.000000 0.000000 0.000000 -11.659143 14.636860 1.687460 3.049499 -5.509015 1.297710 2.625578 -0.882903 0.623193 5.447078 -8.593127 -1.529552 0.000000 0.000000 0.000000 0.000000 0.000000 0.000000 0.259572 0.768736 -1.216309 5.129415 0.816801 -0.223862 -0.749700 4.939895 -0.200186 2.428131 -7.042660 1.340310 0.000000 0.000000 0.000000 0.000000 0.000000 0.000000 -3.077865 -0.296705 -29.815752 2.968009 1.873855 0.046204 -5.586924 -7.106754 0.681853 0.000000 0.000000 0.000000 -0.177674 2.460471 -30.094673 -0.553810 -1.097656 0.069377 4.769113 2.592473 -1.506953 0.000000 0.000000 0.000000
19.864023 83.635532 281.160183 1.621580 0.100746 15.256676 -0.378779 -0.319836 -15.225025 -0.360802 0.272678 0.034758 -0.979324 0.036117 -0.064414 0.000000 0.000000 0.000000 -26.730400 29.336554 7.276692 6.368512 -11.934533 2.370789 3.618072 -0.168991 1.605309 12.572950 -19.041960 -1.841900 0.000000 0.000000 0.000000 0.000000 0.000000 0.000000 -0.356620 1.353151 -2.326514 9.136567 1.783177 -0.479668 -1.373643 9.155864 -0.743471 5.170440 -13.079075 3.651536 0.000000 0.000000 0.000000 0.000000 0.000000 0.000000 -5.504483 -2.234049 -14.569965 5.573246 3.634571 -0.076937 -11.036027 -14.063745 1.079991 0.000000 0.000000 0.000000 -1.455568 4.424440 -14.991406 -1.061014 -2.150230 0.084156 8.982272 4.865911 -2.927652 0.000000 0.000000 0.000000
20.450677 83.127372 281.296375 2.232350 0.162976 1.253176 -0.360645 -0.544739 -1.207919 -0.445692 0.383691 0.051510 -2.387405 0.487383 0.324757 0.000000 0.000000 0.000000 -41.815487 39.869716 15.985108 8.324874 -16.731125 2.776260 2.684775 2.000373 2.511362 21.426187 -29.676675 0.092827 0.000000 0.000000 0.000000 0.000000 0.000000 0.000000 -0.358526 1.652692 -3.229978 11.900104 2.820219 -0.755420 -1.946483 12.355434 -1.368153 8.125432 -17.759819 6.470246 0.000000 0.000000 0.000000 0.000000 0.000000 0.000000 -6.700098 -5.184603 -0.433334 7.763318 5.232797 -0.306530 -16.141608 -20.410218 1.212468 0.000000 0.000000 0.000000 -3.407501 5.602797 -0.811704 -1.521052 -3.142440 0.054574 12.540132 6.811503 -4.215009 0.000000 0.000000 0.000000
20.922785 82.677944 281.406026 2.714935 0.233042 -10.213570 -0.245858 -0.713297 10.270594 -0.469864 0.478630 0.067805 -3.138139 0.508473 0.417235 0.000000 0.000000 0.000000 -54.767822 45.691729 24.887161 8.722925 -19.337738 2.363071 0.707816 4.477847 2.826677 30.244076 -37.618921 3.844009 0.000000 0.000000 0.000000 0.000000 0.000000 0.000000 -0.253607 1.701187 -3.957753 13.378767 3.878250 -1.029426 -2.521242 14.441626 -1.861533 11.054291 -21.051299 9.294822 0.000000 0.000000 0.000000 0.000000 0.000000 0.000000 -6.687143 -8.235974 11.107242 9.481760 6.621917 -0.578091 -20.690361 -25.791586 1.197534 0.000000 0.000000 0.000000 -5.433466 6.079358 10.828244 -1.933361 -4.061858 -0.009101 15.373766 8.443810 -5.332183 0.000000 0.000000 0.000000
21.280345 82.287245 281.489138 3.072600 0.310947 -18.808937 -0.088897 -0.798156 18.875240 -0.435096 0.557901 0.083784 -3.867887 0.460062 0.500074 0.000000 0.000000 0.000000 -64.049607 48.428641 31.793765 8.282629 -20.513385 1.362617 -1.195466 6.275474 2.228799 38.847748 -42.104168 8.942883 0.000000 0.000000 0.000000 0.000000 0.000000 0.000000 -0.047213 1.499976 -4.506482 13.570712 4.932112 -1.272796 -3.113599 15.427858 -2.098743 13.686267 -23.107996 11.700463 0.000000 0.000000 0.000000 0.000000 0.000000 0.000000 -5.871153 -10.789217 19.784129 10.675975 7.760242 -0.830939 -24.490437 -30.027093 1.218767 0.000000 0.000000 0.000000 -7.150702 6.154627 19.563894 -2.297307 -4.898793 -0.097081 17.434605 9.787536 -6.251707 0.000000 0.000000 0.000000
